<svg width="18" height="14" viewBox="0 0 18 14" fill="none" xmlns="http://www.w3.org/2000/svg">
<path d="M15.7255 0H2.27446C1.01495 0 0 1.21266 0 2.71753V11.2825C0 12.7873 1.01495 14 2.27446 14H15.7255C16.9851 14 18 12.7873 18 11.2825V2.71753C18 1.21266 16.9851 0 15.7255 0ZM15.3709 1.75325L9 5.87662L2.62908 1.75325H15.3709ZM15.7255 12.2468H2.27446C1.83424 12.2468 1.46739 11.8084 1.46739 11.2825V2.89286L8.54755 7.68831C8.68207 7.80519 8.84103 7.87825 9 7.87825C9.15897 7.87825 9.31793 7.8198 9.45245 7.68831L16.5326 2.89286V11.2825C16.5326 11.8231 16.1658 12.2468 15.7255 12.2468Z" fill="url(#paint0_linear_1_8694)"/>
<defs>
<linearGradient id="paint0_linear_1_8694" x1="0.000771539" y1="6.12507" x2="18.0006" y2="6.12507" gradientUnits="userSpaceOnUse">
<stop offset="0.0112" stop-color="#FD225C"/>
<stop offset="1" stop-color="#FE7A40"/>
</linearGradient>
</defs>
</svg>
