<svg width="38" height="38" viewBox="0 0 38 38" fill="none" xmlns="http://www.w3.org/2000/svg">
<g clip-path="url(#clip0_0_278)">
<g filter="url(#filter0_d_0_278)">
<path d="M29.2689 28.3407L24.7901 25.7539C23.3482 24.9236 21.5056 25.4174 20.6714 26.8573L20.4943 27.1631C20.231 27.6183 19.7857 27.9389 19.2712 28.0448C18.7566 28.1507 18.2202 28.0299 17.7996 27.7143C16.3796 26.6445 15.0377 25.4748 13.7819 24.2171C12.5232 22.9623 11.3545 21.6194 10.2847 20.1994C9.96907 19.7788 9.84834 19.2434 9.95422 18.7279C10.0591 18.2123 10.3807 17.767 10.8359 17.5047L11.1417 17.3286C12.5816 16.4944 13.0754 14.6528 12.2451 13.2099L9.65933 8.7301C8.91813 7.43275 7.3348 6.87859 5.94641 7.43176L5.891 7.45354C3.67829 8.3214 2.17907 8.94088 1.52396 9.59598C-0.314681 11.4346 -0.495775 14.5924 1.01334 18.4884C2.40172 22.0697 5.08152 25.9578 8.56188 29.4381C12.0413 32.9175 15.9303 35.5983 19.5116 36.9867C21.2582 37.6635 22.8574 38.001 24.2547 38.001C25.9746 38.001 27.3897 37.4913 28.404 36.477C29.0591 35.8229 29.6766 34.3227 30.5455 32.11L30.5672 32.0546C31.1214 30.6652 30.5672 29.0819 29.2689 28.3407ZM28.3575 31.1857L28.3357 31.2411C27.933 32.2673 27.0948 34.4029 26.7257 34.7957C25.6084 35.912 23.2928 35.9031 20.3706 34.771C17.0901 33.5004 13.494 31.0086 10.2422 27.7568C6.99042 24.505 4.49964 20.9089 3.22902 17.6284C2.09594 14.7062 2.08704 12.3906 3.2023 11.2753C3.59813 10.9042 5.73266 10.065 6.75886 9.66327L6.81428 9.6415C6.89146 9.61083 6.9736 9.59499 7.05574 9.59499C7.28235 9.59499 7.49214 9.71869 7.60199 9.91661L10.1878 14.3965C10.3639 14.7022 10.259 15.0941 9.95324 15.2703L9.64745 15.4474C8.60344 16.05 7.86818 17.0713 7.62673 18.2519C7.38527 19.4324 7.66136 20.6605 8.38475 21.6244C9.52178 23.1335 10.7647 24.5615 12.1026 25.8954C13.4376 27.2333 14.8645 28.4762 16.3737 29.6133C17.3375 30.3367 18.5656 30.6128 19.7462 30.3713C20.9267 30.1298 21.948 29.3936 22.5506 28.3496L22.7278 28.0438C22.9049 27.738 23.2958 27.6331 23.6016 27.8093L28.0814 30.396C28.3595 30.5524 28.4782 30.8908 28.3575 31.1857ZM29.6875 9.26348C29.2155 9.09525 28.688 9.24072 28.3694 9.62765L22.7149 16.4993C22.423 16.8546 22.3616 17.3454 22.5576 17.761C22.7535 18.1767 23.1721 18.4419 23.6313 18.4419H28.0982V19.756C28.0982 20.4121 28.6296 20.9435 29.2857 20.9435C29.9418 20.9435 30.4732 20.4121 30.4732 19.756V18.4419H30.6949C31.35 18.4419 31.8824 17.9105 31.8824 17.2544C31.8824 16.5983 31.35 16.0669 30.6949 16.0669H30.4732V10.3807C30.4742 9.87999 30.1595 9.4327 29.6875 9.26348ZM28.0992 16.0649H26.1478L28.0992 13.6929V16.0649ZM20.0509 13.7206C20.2696 12.921 20.14 12.3262 19.668 11.9522C19.1178 11.5168 18.2014 11.4396 17.5829 11.778C17.1366 12.0205 16.9476 12.4311 17.006 13.0308C17.0357 13.3445 16.9407 13.6572 16.7398 13.9007C16.5399 14.1431 16.2509 14.2965 15.9372 14.3272C15.6235 14.3569 15.3108 14.2619 15.0684 14.061C14.825 13.8611 14.6716 13.5721 14.6419 13.2584C14.4925 11.6988 15.1495 10.3985 16.4469 9.69197C17.9095 8.89536 19.8392 9.05963 21.1425 10.0898C22.3775 11.0665 22.8148 12.6182 22.3428 14.346C22.0212 15.5226 20.9099 16.3905 19.7333 17.3088C19.2316 17.7007 18.6982 18.1163 18.2143 18.5675H21.664C22.3201 18.5675 22.8515 19.0999 22.8515 19.755C22.8515 20.4111 22.3201 20.9425 21.664 20.9425H15.7967C15.387 20.9425 15.007 20.7318 14.7903 20.3854C14.5726 20.0391 14.5498 19.6046 14.728 19.2365C15.5355 17.572 17.0525 16.3875 18.2717 15.4365C19.0139 14.8566 19.9371 14.1352 20.0509 13.7206ZM38 15.4652C38.0109 19.569 36.3801 23.5075 33.4697 26.4011C33.0056 26.8603 32.2575 26.8583 31.7953 26.3961C31.3342 25.935 31.3312 25.1869 31.7904 24.7218C34.2534 22.2725 35.6339 18.9396 35.625 15.4652C35.625 8.24718 29.7518 2.37499 22.5338 2.37499C19.0604 2.36609 15.7275 3.74656 13.2772 6.20963C12.8121 6.66583 12.066 6.66286 11.6058 6.20171C11.1457 5.74057 11.1417 4.99442 11.5989 4.53031C14.4925 1.61994 18.43 -0.0108923 22.5338 -6.89013e-06C31.062 -6.89013e-06 38 6.93796 38 15.4652Z" fill="url(#paint0_linear_0_278)"/>
</g>
</g>
<defs>
<filter id="filter0_d_0_278" x="-50.0002" y="-50.0001" width="138" height="138.001" filterUnits="userSpaceOnUse" color-interpolation-filters="sRGB">
<feFlood flood-opacity="0" result="BackgroundImageFix"/>
<feColorMatrix in="SourceAlpha" type="matrix" values="0 0 0 0 0 0 0 0 0 0 0 0 0 0 0 0 0 0 127 0" result="hardAlpha"/>
<feOffset/>
<feGaussianBlur stdDeviation="25"/>
<feComposite in2="hardAlpha" operator="out"/>
<feColorMatrix type="matrix" values="0 0 0 0 0 0 0 0 0 0 0 0 0 0 0 0 0 0 0.1 0"/>
<feBlend mode="normal" in2="BackgroundImageFix" result="effect1_dropShadow_0_278"/>
<feBlend mode="normal" in="SourceGraphic" in2="effect1_dropShadow_0_278" result="shape"/>
</filter>
<linearGradient id="paint0_linear_0_278" x1="0.00147623" y1="19.0006" x2="38.0014" y2="19.0006" gradientUnits="userSpaceOnUse">
<stop offset="0.0112" stop-color="#FD225C"/>
<stop offset="1" stop-color="#FE7A40"/>
</linearGradient>
<clipPath id="clip0_0_278">
<rect width="38" height="38" fill="white"/>
</clipPath>
</defs>
</svg>
