<svg width="35" height="35" viewBox="0 0 35 35" fill="none" xmlns="http://www.w3.org/2000/svg">
<path fill-rule="evenodd" clip-rule="evenodd" d="M28.8651 5.61298C31.5819 8.34966 33.3499 11.7886 33.9896 15.5678C34.083 16.0964 33.7237 16.6031 33.199 16.6828C33.1932 16.6835 33.1875 16.6842 33.1818 16.685C33.1313 16.6914 33.0854 16.6973 33.0337 16.6973C32.5665 16.6973 32.1568 16.3642 32.0778 15.8864C31.51 12.5126 29.9288 9.43565 27.4995 6.98856C25.0702 4.54872 22.0156 2.9487 18.6663 2.37675C18.1344 2.28263 17.7822 1.78308 17.8685 1.24732C17.9619 0.718812 18.4578 0.356817 18.9825 0.450936C22.7343 1.09529 26.1483 2.8763 28.8651 5.61298ZM26.8885 21.6859C26.1914 20.9547 25.3505 20.5637 24.4592 20.5637C23.5752 20.5637 22.7271 20.9474 22.0012 21.6786L19.73 23.9592C19.6066 23.8923 19.4832 23.8285 19.3618 23.7658L19.3615 23.7656C19.2992 23.7334 19.2375 23.7015 19.1766 23.6696C18.9178 23.5393 18.6735 23.4162 18.465 23.2859C16.3376 21.9248 14.4042 20.151 12.5499 17.856C11.6514 16.7121 11.0477 15.7492 10.6093 14.7718C11.1418 14.2812 11.6391 13.7728 12.1224 13.2788L12.1224 13.2788L12.2767 13.1211C12.3774 13.0197 12.478 12.9165 12.5786 12.8134C12.6792 12.7102 12.7799 12.607 12.8805 12.5057C14.3898 10.9853 14.3898 9.01606 12.8805 7.49568L10.9183 5.51919C10.6955 5.29475 10.4655 5.06308 10.2499 4.8314C9.81869 4.38253 9.36589 3.91917 8.89871 3.48478C8.20154 2.78975 7.36782 2.42051 6.49096 2.42051C5.61411 2.42051 4.76601 2.78975 4.04728 3.48478L4.0329 3.49926L1.58922 5.98254C0.669245 6.90925 0.144572 8.03868 0.0295747 9.3491C-0.142921 11.4631 0.475188 13.4324 0.94955 14.7211C2.11389 17.8849 3.85322 20.8171 6.44784 23.9592C9.59588 27.7457 13.3836 30.7358 17.7104 32.8426C19.3634 33.6317 21.5699 34.5657 24.0352 34.7249C24.1861 34.7322 24.3442 34.7394 24.488 34.7394C26.1482 34.7394 27.5426 34.1385 28.6351 32.9439C28.6387 32.9367 28.644 32.9313 28.6494 32.9258C28.6548 32.9204 28.6602 32.915 28.6638 32.9077C29.0098 32.4854 29.4052 32.1003 29.8213 31.695L29.8213 31.695L29.9216 31.5973C30.2306 31.3005 30.5469 30.9892 30.8559 30.6634C31.5675 29.9176 31.9412 29.0489 31.9412 28.1584C31.9412 27.2606 31.5603 26.3991 30.8344 25.6751L26.8885 21.6859ZM28.7486 30.032L28.7486 30.032C28.709 30.0708 28.6691 30.1099 28.6289 30.1494C28.6142 30.1638 28.5995 30.1782 28.5847 30.1928C28.1176 30.6416 27.6432 31.1122 27.1976 31.6407C26.4717 32.4227 25.6164 32.7919 24.4952 32.7919C24.3874 32.7919 24.2724 32.7919 24.1646 32.7846C22.0299 32.6471 20.0462 31.8073 18.5585 31.0905C14.4904 29.1068 10.9183 26.2905 7.94999 22.7212C5.49912 19.7456 3.86041 16.9944 2.77513 14.0406C2.10671 12.2378 1.86234 10.8333 1.97015 9.50838C2.04202 8.66131 2.36545 7.95904 2.962 7.35813L5.41287 4.88932C5.76505 4.55628 6.13879 4.37529 6.50534 4.37529C6.95814 4.37529 7.32469 4.6504 7.55469 4.88208L7.57625 4.9038C8.01467 5.31647 8.43154 5.74363 8.86996 6.19974C8.9822 6.31645 9.09627 6.43316 9.21124 6.5508L9.21133 6.55089L9.21139 6.55095C9.32459 6.66678 9.43867 6.7835 9.55276 6.90201L11.5149 8.8785C12.2767 9.64593 12.2767 10.3554 11.5149 11.1229C11.4452 11.1931 11.3762 11.2634 11.3075 11.3334C11.171 11.4725 11.0355 11.6106 10.8968 11.7455C10.293 12.3681 9.71806 12.9473 9.09277 13.512C9.08768 13.5172 9.08259 13.5214 9.07781 13.5253C9.06911 13.5326 9.06147 13.5389 9.05683 13.5482C8.43872 14.1709 8.55372 14.779 8.68309 15.1917L8.70465 15.2569C9.21495 16.5021 9.93368 17.675 11.0262 19.0723L11.0333 19.0795C13.017 21.5411 15.1085 23.4597 17.4157 24.9294C17.7104 25.1176 18.0122 25.2696 18.2997 25.4144L18.2998 25.4145C18.5585 25.5448 18.8028 25.6678 19.0113 25.7981C19.0256 25.8054 19.04 25.8144 19.0544 25.8235L19.0544 25.8235C19.0688 25.8326 19.0831 25.8416 19.0975 25.8488C19.3419 25.9719 19.5719 26.0298 19.809 26.0298C20.4056 26.0298 20.7793 25.6533 20.9015 25.5303L23.3596 23.0542C23.6039 22.8081 23.9921 22.5112 24.4449 22.5112C24.8905 22.5112 25.257 22.7936 25.4798 23.0397L25.4942 23.0542L29.4544 27.0434C30.1947 27.7819 30.1947 28.5421 29.4616 29.3095C29.2314 29.5592 28.9964 29.7893 28.7486 30.032ZM18.3789 8.59623C20.2619 8.91479 21.9725 9.81254 23.3381 11.1881C24.7037 12.5637 25.5877 14.2868 25.9112 16.1836C25.9902 16.6615 26.3999 16.9945 26.8671 16.9945C26.9188 16.9945 26.9646 16.9887 27.0152 16.9822L27.0324 16.98C27.5642 16.8932 27.9164 16.3864 27.8302 15.8506C27.4421 13.5556 26.364 11.4632 24.7181 9.8053C23.0722 8.14736 20.9951 7.06138 18.7167 6.67042C18.1848 6.58354 17.6889 6.9383 17.5955 7.46681C17.502 7.99532 17.847 8.50935 18.3789 8.59623Z" fill="url(#paint0_linear_0_354)"/>
<defs>
<linearGradient id="paint0_linear_0_354" x1="0.00145754" y1="15.4439" x2="34.0056" y2="15.4439" gradientUnits="userSpaceOnUse">
<stop offset="0.0112" stop-color="#FD225C"/>
<stop offset="1" stop-color="#FE7A40"/>
</linearGradient>
</defs>
</svg>
