<svg width="35" height="36" viewBox="0 0 35 36" fill="none" xmlns="http://www.w3.org/2000/svg">
<g clip-path="url(#clip0_0_269)">
<path d="M5.50939 20.1888C8.64447 21.4186 12.7899 22.0964 17.182 22.0964C21.5741 22.0964 25.7195 21.4193 28.8546 20.1888C32.302 18.8367 34.2 16.9172 34.2 14.7839C34.2 13.6076 33.6111 11.8744 30.8054 10.2951C30.3398 10.0329 29.8414 9.79803 29.2824 9.57584L28.6371 9.31991C28.1437 4.38678 26.8739 1.47444 24.7641 0.425376C22.352 -0.774155 19.6953 0.847954 18.1082 1.81756C17.803 2.00389 17.4059 2.24647 17.1813 2.35334C16.9567 2.24647 16.5595 2.00389 16.2544 1.81756C14.6672 0.848657 12.0106 -0.774155 9.59847 0.425376C7.48798 1.47514 6.21883 4.38748 5.72543 9.31991L5.08016 9.57584C4.52117 9.79803 4.02278 10.0329 3.55718 10.2951C0.751509 11.8744 0.162567 13.6083 0.162567 14.7839C0.16328 16.9172 2.06201 18.8367 5.50939 20.1888ZM10.5632 2.30905C10.8455 2.16842 11.1514 2.10795 11.4708 2.10795C12.6672 2.10795 14.054 2.95522 15.1285 3.61123C16.0041 4.14561 16.5824 4.49928 17.182 4.49928C17.7816 4.49928 18.3599 4.14631 19.2355 3.61123C20.5959 2.78014 22.4597 1.64249 23.8008 2.30905C24.7641 2.78858 25.9947 4.43248 26.5038 9.48514C23.8593 10.7972 20.5795 11.5151 17.182 11.5151C13.7838 11.5151 10.5047 10.7972 7.86017 9.48514C8.36925 4.43319 9.5999 2.78858 10.5632 2.30905ZM4.61885 12.1282C4.99959 11.9137 5.41171 11.7197 5.88015 11.5333L6.63095 11.2352C9.61844 12.7786 13.3418 13.6251 17.1813 13.6251C21.0201 13.6251 24.7441 12.7786 27.7316 11.2352L28.4831 11.5333C28.9509 11.7197 29.3637 11.9137 29.7444 12.1282C31.2375 12.9684 32.0596 13.912 32.0596 14.7839C32.0596 15.9581 30.5658 17.2455 28.0632 18.2278C25.1741 19.3612 21.3096 19.9856 17.1813 19.9856C13.0537 19.9856 9.18921 19.3612 6.30011 18.2278C3.79747 17.2462 2.30372 15.9588 2.30372 14.7839C2.30372 13.912 3.12582 12.9691 4.61885 12.1282Z" fill="url(#paint0_linear_0_269)"/>
<path d="M33.1298 27.0043H31.8549C30.8617 24.6502 28.5052 22.9908 25.7623 22.9908C23.0051 22.9908 20.6379 24.6678 19.654 27.0415C18.054 26.2322 16.1332 26.235 14.5332 27.0598C13.5535 24.6762 11.1821 22.9901 8.41774 22.9901C5.67552 22.9901 3.31904 24.6495 2.32511 27.0035H1.07022C0.479139 27.0043 0 27.4768 0 28.0596C0 28.6425 0.479139 29.115 1.07022 29.115H1.83385C1.82672 29.2409 1.82244 29.3682 1.82244 29.4954C1.82244 33.0821 4.78141 36 8.41845 36C12.0555 36 15.0137 33.0821 15.0137 29.4954C15.0137 29.416 15.0116 29.3379 15.0088 29.2592C16.228 28.3177 17.947 28.3114 19.1727 29.2254C19.1691 29.3147 19.1663 29.4047 19.1663 29.4954C19.1663 33.0821 22.1253 36 25.7623 36C29.3993 36 32.3576 33.0821 32.3576 29.4954C32.3576 29.3675 32.3533 29.2409 32.3462 29.115H33.1291C33.7201 29.115 34.1993 28.6425 34.1993 28.0596C34.2 27.4768 33.7209 27.0043 33.1298 27.0043ZM8.41845 33.8893C5.96143 33.8893 3.96288 31.9177 3.96288 29.4954C3.96288 27.0732 5.96143 25.1016 8.41845 25.1016C10.8755 25.1016 12.874 27.0725 12.874 29.4954C12.874 31.9184 10.8748 33.8893 8.41845 33.8893ZM25.7623 33.8893C23.3053 33.8893 21.3067 31.9177 21.3067 29.4954C21.3067 27.0732 23.306 25.1016 25.7623 25.1016C28.2186 25.1016 30.2179 27.0725 30.2179 29.4954C30.2179 31.9184 28.2193 33.8893 25.7623 33.8893Z" fill="url(#paint1_linear_0_269)"/>
</g>
<defs>
<linearGradient id="paint0_linear_0_269" x1="3.94449" y1="22.4217" x2="20.2487" y2="-4.26317" gradientUnits="userSpaceOnUse">
<stop offset="0.0112" stop-color="#FD225C"/>
<stop offset="1" stop-color="#FE7A40"/>
</linearGradient>
<linearGradient id="paint1_linear_0_269" x1="3.7999" y1="36.1916" x2="10.6477" y2="17.0661" gradientUnits="userSpaceOnUse">
<stop offset="0.0112" stop-color="#FD225C"/>
<stop offset="1" stop-color="#FE7A40"/>
</linearGradient>
<clipPath id="clip0_0_269">
<rect width="34.2" height="36" fill="white"/>
</clipPath>
</defs>
</svg>
