<svg width="34" height="36" viewBox="0 0 34 36" fill="none" xmlns="http://www.w3.org/2000/svg">
<g clip-path="url(#clip0_2_490)">
<path d="M5.36653 20.1888C8.42033 21.4186 12.4583 22.0964 16.7365 22.0964C21.0148 22.0964 25.0527 21.4193 28.1065 20.1888C31.4645 18.8367 33.3133 16.9172 33.3133 14.7839C33.3133 13.6076 32.7396 11.8744 30.0067 10.2951C29.5532 10.0329 29.0677 9.79803 28.5232 9.57584L27.8947 9.31991C27.4141 4.38678 26.1771 1.47444 24.122 0.425376C21.7725 -0.774155 19.1847 0.847954 17.6387 1.81756C17.3414 2.00389 16.9546 2.24647 16.7358 2.35334C16.517 2.24647 16.1302 2.00389 15.8329 1.81756C14.2869 0.848657 11.6992 -0.774155 9.3496 0.425376C7.29382 1.47514 6.05758 4.38748 5.57697 9.31991L4.94843 9.57584C4.40392 9.79803 3.91846 10.0329 3.46493 10.2951C0.731999 11.8744 0.158325 13.6083 0.158325 14.7839C0.15902 16.9172 2.00853 18.8367 5.36653 20.1888ZM10.2893 2.30905C10.5643 2.16842 10.8623 2.10795 11.1734 2.10795C12.3388 2.10795 13.6897 2.95522 14.7363 3.61123C15.5892 4.14561 16.1524 4.49928 16.7365 4.49928C17.3206 4.49928 17.8839 4.14631 18.7367 3.61123C20.0619 2.78014 21.8773 1.64248 23.1837 2.30905C24.122 2.78858 25.3208 4.43248 25.8167 9.48514C23.2407 10.7972 20.0459 11.5151 16.7365 11.5151C13.4264 11.5151 10.2323 10.7972 7.65636 9.48514C8.15225 4.43319 9.35099 2.78858 10.2893 2.30905ZM4.49907 12.1282C4.86995 11.9137 5.27138 11.7197 5.72768 11.5333L6.45901 11.2352C9.36905 12.7786 12.9958 13.6251 16.7358 13.6251C20.4751 13.6251 24.1026 12.7786 27.0126 11.2352L27.7446 11.5333C28.2003 11.7197 28.6024 11.9137 28.9733 12.1282C30.4276 12.9684 31.2284 13.912 31.2284 14.7839C31.2284 15.9581 29.7733 17.2455 27.3356 18.2278C24.5214 19.3612 20.7571 19.9856 16.7358 19.9856C12.7152 19.9856 8.95095 19.3612 6.13675 18.2278C3.69899 17.2462 2.24397 15.9588 2.24397 14.7839C2.24397 13.912 3.04475 12.9691 4.49907 12.1282Z" fill="url(#paint0_linear_2_490)"/>
<path d="M32.2709 27.0044H31.0291C30.0616 24.6503 27.7662 22.9909 25.0944 22.9909C22.4087 22.9909 20.1029 24.6679 19.1444 27.0416C17.5859 26.2323 15.7149 26.2352 14.1564 27.0599C13.2021 24.6763 10.8922 22.9902 8.1995 22.9902C5.52838 22.9902 3.23299 24.6496 2.26483 27.0037H1.04247C0.466717 27.0044 0 27.4769 0 28.0598C0 28.6427 0.466717 29.1152 1.04247 29.1152H1.7863C1.77936 29.241 1.77519 29.3683 1.77519 29.4955C1.77519 33.0822 4.65745 36.0002 8.20019 36.0002C11.7429 36.0002 14.6245 33.0822 14.6245 29.4955C14.6245 29.4161 14.6224 29.338 14.6196 29.2593C15.8073 28.3178 17.4818 28.3115 18.6756 29.2255C18.6722 29.3148 18.6694 29.4048 18.6694 29.4955C18.6694 33.0822 21.5516 36.0002 25.0944 36.0002C28.6371 36.0002 31.5187 33.0822 31.5187 29.4955C31.5187 29.3676 31.5145 29.241 31.5076 29.1152H32.2702C32.8459 29.1152 33.3126 28.6427 33.3126 28.0598C33.3133 27.4769 32.8466 27.0044 32.2709 27.0044ZM8.20019 33.8894C5.80688 33.8894 3.86014 31.9178 3.86014 29.4955C3.86014 27.0733 5.80688 25.1017 8.20019 25.1017C10.5935 25.1017 12.5402 27.0726 12.5402 29.4955C12.5402 31.9185 10.5928 33.8894 8.20019 33.8894ZM25.0944 33.8894C22.7011 33.8894 20.7543 31.9178 20.7543 29.4955C20.7543 27.0733 22.7018 25.1017 25.0944 25.1017C27.487 25.1017 29.4344 27.0726 29.4344 29.4955C29.4344 31.9185 27.4877 33.8894 25.0944 33.8894Z" fill="url(#paint1_linear_2_490)"/>
</g>
<defs>
<linearGradient id="paint0_linear_2_490" x1="3.84219" y1="22.4217" x2="20.3385" y2="-3.87755" gradientUnits="userSpaceOnUse">
<stop offset="0.0112" stop-color="#FD225C"/>
<stop offset="1" stop-color="#FE7A40"/>
</linearGradient>
<linearGradient id="paint1_linear_2_490" x1="3.70139" y1="36.1917" x2="10.6886" y2="17.1828" gradientUnits="userSpaceOnUse">
<stop offset="0.0112" stop-color="#FD225C"/>
<stop offset="1" stop-color="#FE7A40"/>
</linearGradient>
<clipPath id="clip0_2_490">
<rect width="33.3133" height="36" fill="white"/>
</clipPath>
</defs>
</svg>
