<svg width="38" height="38" viewBox="0 0 38 38" fill="none" xmlns="http://www.w3.org/2000/svg">
<g clip-path="url(#clip0_2_498)">
<g filter="url(#filter0_d_2_498)">
<path d="M28.5101 28.3407L24.1474 25.754C22.7429 24.9237 20.9481 25.4175 20.1355 26.8573L19.963 27.1631C19.7066 27.6183 19.2728 27.939 18.7716 28.0448C18.2703 28.1507 17.7479 28.03 17.3382 27.7143C15.955 26.6446 14.6479 25.4749 13.4247 24.2171C12.1985 22.9623 11.0601 21.6195 10.0181 20.1994C9.71064 19.7789 9.59304 19.2435 9.69618 18.7279C9.79836 18.2123 10.1116 17.767 10.555 17.5048L10.8529 17.3286C12.2554 16.4944 12.7364 14.6528 11.9277 13.21L9.40893 8.73016C8.68695 7.43282 7.14466 6.87865 5.79227 7.43183L5.73829 7.4536C3.58295 8.32146 2.1226 8.94094 1.48448 9.59604C-0.306496 11.4347 -0.482895 14.5925 0.987094 18.4884C2.33948 22.0697 4.9498 25.9578 8.33993 29.4382C11.7291 32.9176 15.5173 35.5983 19.0058 36.9867C20.7071 37.6636 22.2648 38.001 23.6259 38.001C25.3012 38.001 26.6796 37.4914 27.6676 36.4771C28.3058 35.823 28.9073 34.3228 29.7536 32.1101L29.7748 32.0546C30.3146 30.6653 29.7748 29.0819 28.5101 28.3407ZM27.6223 31.1858L27.6011 31.2412C27.2088 32.2674 26.3924 34.4029 26.0328 34.7958C24.9446 35.912 22.689 35.9031 19.8425 34.771C16.6471 33.5004 13.1441 31.0086 9.97668 27.7569C6.80922 24.5051 4.38301 20.909 3.14533 17.6285C2.04163 14.7063 2.03296 12.3906 3.1193 11.2754C3.50487 10.9043 5.58407 10.0651 6.58366 9.66334L6.63764 9.64157C6.71282 9.61089 6.79283 9.59505 6.87284 9.59505C7.09358 9.59505 7.29793 9.71875 7.40492 9.91667L9.92367 14.3965C10.0952 14.7023 9.99307 15.0942 9.69522 15.2703L9.39736 15.4475C8.38042 16.0501 7.66422 17.0714 7.42902 18.2519C7.19382 19.4325 7.46276 20.6606 8.16739 21.6244C9.27494 23.1335 10.4856 24.5615 11.7889 25.8955C13.0892 27.2334 14.4792 28.4763 15.9492 29.6133C16.888 30.3367 18.0843 30.6128 19.2342 30.3714C20.3842 30.1299 21.379 29.3936 21.966 28.3496L22.1386 28.0439C22.3111 27.7381 22.6918 27.6332 22.9897 27.8093L27.3534 30.3961C27.6243 30.5525 27.7399 30.8909 27.6223 31.1858ZM28.9179 9.26354C28.4581 9.09532 27.9443 9.24078 27.6339 9.62771L22.126 16.4994C21.8417 16.8546 21.7819 17.3455 21.9728 17.7611C22.1636 18.1767 22.5714 18.4419 23.0186 18.4419H27.3698V19.7561C27.3698 20.4122 27.8874 20.9436 28.5265 20.9436C29.1656 20.9436 29.6832 20.4122 29.6832 19.7561V18.4419H29.8991C30.5373 18.4419 31.0558 17.9105 31.0558 17.2544C31.0558 16.5983 30.5373 16.0669 29.8991 16.0669H29.6832V10.3808C29.6842 9.88005 29.3777 9.43276 28.9179 9.26354ZM27.3708 16.065H25.4699L27.3708 13.6929V16.065ZM19.5311 13.7206C19.7442 12.921 19.6179 12.3263 19.1581 11.9522C18.6221 11.5168 17.7296 11.4396 17.1271 11.7781C16.6924 12.0205 16.5083 12.4312 16.5651 13.0309C16.594 13.3446 16.5015 13.6573 16.3058 13.9007C16.1111 14.1432 15.8297 14.2966 15.5241 14.3272C15.2185 14.3569 14.9139 14.2619 14.6778 14.061C14.4406 13.8611 14.2912 13.5722 14.2623 13.2585C14.1168 11.6989 14.7568 10.3986 16.0205 9.69203C17.4452 8.89542 19.3249 9.05969 20.5943 10.0898C21.7973 11.0666 22.2234 12.6182 21.7636 14.346C21.4503 15.5227 20.3678 16.3905 19.2217 17.3089C18.733 17.7007 18.2134 18.1164 17.7421 18.5676H21.1023C21.7414 18.5676 22.259 19.1 22.259 19.7551C22.259 20.4112 21.7414 20.9426 21.1023 20.9426H15.3872C14.9881 20.9426 14.618 20.7318 14.4069 20.3855C14.1948 20.0391 14.1727 19.6047 14.3462 19.2366C15.1327 17.5721 16.6104 16.3876 17.798 15.4366C18.5209 14.8567 19.4203 14.1353 19.5311 13.7206ZM37.0149 15.4653C37.0255 19.5691 35.4369 23.5076 32.602 26.4011C32.1499 26.8603 31.4212 26.8583 30.971 26.3962C30.5218 25.9351 30.5189 25.1869 30.9662 24.7218C33.3654 22.2726 34.7101 18.9397 34.7014 15.4653C34.7014 8.24724 28.9805 2.37505 21.9496 2.37505C18.5662 2.36615 15.3197 3.74662 12.933 6.20969C12.48 6.66589 11.7532 6.66292 11.305 6.20177C10.8567 5.74063 10.8529 4.99448 11.2982 4.53037C14.1168 1.62 17.9522 -0.0108313 21.9496 5.4145e-05C30.2568 5.4145e-05 37.0149 6.93802 37.0149 15.4653Z" fill="url(#paint0_linear_2_498)"/>
</g>
</g>
<defs>
<filter id="filter0_d_2_498" x="-50.0001" y="-50" width="137.015" height="138.001" filterUnits="userSpaceOnUse" color-interpolation-filters="sRGB">
<feFlood flood-opacity="0" result="BackgroundImageFix"/>
<feColorMatrix in="SourceAlpha" type="matrix" values="0 0 0 0 0 0 0 0 0 0 0 0 0 0 0 0 0 0 127 0" result="hardAlpha"/>
<feOffset/>
<feGaussianBlur stdDeviation="25"/>
<feComposite in2="hardAlpha" operator="out"/>
<feColorMatrix type="matrix" values="0 0 0 0 0 0 0 0 0 0 0 0 0 0 0 0 0 0 0.1 0"/>
<feBlend mode="normal" in2="BackgroundImageFix" result="effect1_dropShadow_2_498"/>
<feBlend mode="normal" in="SourceGraphic" in2="effect1_dropShadow_2_498" result="shape"/>
</filter>
<linearGradient id="paint0_linear_2_498" x1="0.00146451" y1="19.0007" x2="37.0162" y2="19.0007" gradientUnits="userSpaceOnUse">
<stop offset="0.0112" stop-color="#FD225C"/>
<stop offset="1" stop-color="#FE7A40"/>
</linearGradient>
<clipPath id="clip0_2_498">
<rect width="37.0148" height="38" fill="white"/>
</clipPath>
</defs>
</svg>
